# File created by Blade
# Date/Time:  Thu Sep 25 17:54:10 2014
# Frame Rate: 120.000 fps
#------------------------------------------------------
:FULLY-SPECIFIED
:DEGREES
1861
root -0.063769 32.503018 -6.509603 25.245964 1.556735 -0.195658
Spine -32.464516 21.971606 -12.087182
Head -3.639156 -20.330716 -8.188234
LeftShoulder -2.858121 -4.762323 39.249787
LeftArm 61.439430 14.585004 -109.670436
LeftForeArm -10.561262 -0.000000 136.899808
LeftHand -32.657647 -0.000000 39.358224
LeftHandThumb1 -26.253704 0.000000 33.147579
RightShoulder -3.008018 44.760744 -63.971532
RightArm 98.659155 -28.023018 84.428809
RightForeArm -8.642079 -0.000000 104.972409
RightHand 3.623826 -0.000000 7.057168
RightHandThumb1 -24.326973 -0.000000 -32.862282
LeftUpLeg -20.262982 3.437720 0.697615
LeftLeg -0.272520 -0.000000 0.000000
LeftFoot -5.744142 -1.503605 -2.089593
LeftToeBase 3.437566 -0.000000 -0.000000
RightUpLeg -19.886012 -8.508767 4.764337
RightLeg -1.406483 -0.000000 0.000000
RightFoot -8.200445 -0.324538 11.339842
RightToeBase 16.207521 -0.000000 -0.000000
1862
root -0.062129 32.503067 -6.511819 25.242910 1.514778 -0.193177
Spine -32.466362 21.976013 -12.083928
Head -3.574417 -20.339127 -8.246206
LeftShoulder -2.872936 -4.760854 39.261355
LeftArm 61.431337 14.574567 -109.685473
LeftForeArm -10.471312 -0.000000 136.923091
LeftHand -32.695631 -0.000000 39.408066
LeftHandThumb1 -26.253704 0.000000 33.147579
RightShoulder -2.999463 44.763864 -63.975572
RightArm 98.673296 -28.010644 84.426866
RightForeArm -8.632562 -0.000000 104.980057
RightHand 3.641491 -0.000000 7.030362
RightHandThumb1 -24.326973 -0.000000 -32.862282
LeftUpLeg -20.258826 3.460456 0.679113
LeftLeg -0.270794 -0.000000 0.000000
LeftFoot -5.746554 -1.482810 -2.079899
LeftToeBase 3.439102 -0.000000 -0.000000
RightUpLeg -19.918309 -8.568822 4.782609
RightLeg -1.362896 -0.000000 0.000000
RightFoot -8.205784 -0.238855 11.299221
RightToeBase 16.201501 -0.000000 -0.000000
1863
root -0.063816 32.503382 -6.515276 25.247305 1.457917 -0.205611
Spine -32.475386 21.992527 -12.083799
Head -3.524708 -20.342935 -8.288740
LeftShoulder -2.895484 -4.790250 39.281819
LeftArm 61.407401 14.558240 -109.687833
LeftForeArm -10.322076 -0.000000 136.943340
LeftHand -32.773245 -0.000000 39.563255
LeftHandThumb1 -26.253704 0.000000 33.147579
RightShoulder -2.996178 44.769311 -63.975899
RightArm 98.695155 -27.997480 84.423121
RightForeArm -8.614009 0.000000 104.992783
RightHand 3.626076 0.000000 7.038602
RightHandThumb1 -24.326973 -0.000000 -32.862282
LeftUpLeg -20.258336 3.500225 0.676357
LeftLeg -0.279703 -0.000000 0.000000
LeftFoot -5.743814 -1.473941 -2.109355
LeftToeBase 3.458382 -0.000000 -0.000000
RightUpLeg -19.898130 -8.461404 4.752521
RightLeg -1.422365 -0.000000 0.000000
RightFoot -8.160076 -0.283070 11.306405
RightToeBase 16.201047 -0.000000 -0.000000
1864
root -0.064158 32.503763 -6.518226 25.246598 1.422286 -0.211857
Spine -32.480340 22.001118 -12.079037
Head -3.460866 -20.359707 -8.351029
LeftShoulder -2.899523 -4.797834 39.288779
LeftArm 61.414452 14.535681 -109.696278
LeftForeArm -10.330061 0.000000 136.952013
LeftHand -32.742733 -0.000000 39.682015
LeftHandThumb1 -26.253704 0.000000 33.147579
RightShoulder -2.994456 44.763300 -63.977350
RightArm 98.710402 -27.999754 84.424427
RightForeArm -8.677592 -0.000000 105.008097
RightHand 3.649028 -0.000000 6.934957
RightHandThumb1 -24.326973 -0.000000 -32.862282
LeftUpLeg -20.260709 3.515531 0.674806
LeftLeg -0.272850 -0.000000 0.000000
LeftFoot -5.741090 -1.454947 -2.099141
LeftToeBase 3.411690 -0.000000 -0.000000
RightUpLeg -19.897042 -8.431603 4.746337
RightLeg -1.433348 -0.000000 0.000000
RightFoot -8.194531 -0.310446 11.237517
RightToeBase 16.358642 -0.000000 -0.000000
1865
root -0.064651 32.503815 -6.520607 25.249784 1.370689 -0.219222
Spine -32.496117 22.027437 -12.090692
Head -3.386643 -20.386386 -8.422716
LeftShoulder -2.906222 -4.829575 39.297076
LeftArm 61.414824 14.518469 -109.698531
LeftForeArm -10.309381 0.000000 136.964461
LeftHand -32.813823 0.000000 39.752737
LeftHandThumb1 -26.253704 0.000000 33.147579
RightShoulder -2.954822 44.699818 -63.972871
RightArm 98.785486 -27.978145 84.411803
RightForeArm -8.729953 -0.000000 105.052720
RightHand 3.580593 0.000000 7.038914
RightHandThumb1 -24.326973 -0.000000 -32.862282
LeftUpLeg -20.252748 3.521738 0.677410
LeftLeg -0.287836 -0.000000 0.000000
LeftFoot -5.744422 -1.411982 -2.107345
LeftToeBase 3.429377 -0.000000 -0.000000
RightUpLeg -19.909161 -8.420733 4.746313
RightLeg -1.435814 -0.000000 0.000000
RightFoot -8.134575 -0.237038 11.336963
RightToeBase 16.219331 -0.000000 -0.000000
1866
root -0.064656 32.504185 -6.522966 25.248854 1.342503 -0.219220
Spine -32.494810 22.037188 -12.081206
Head -3.333619 -20.368349 -8.504831
LeftShoulder -2.923756 -4.896975 39.264977
LeftArm 61.392954 14.483545 -109.679928
LeftForeArm -10.367158 -0.000000 136.958559
LeftHand -32.812155 -0.000000 39.768269
LeftHandThumb1 -26.253704 0.000000 33.147579
RightShoulder -2.993620 44.734319 -63.989695
RightArm 98.783713 -27.968718 84.396352
RightForeArm -8.687698 0.000000 105.015589
RightHand 3.611622 -0.000000 7.007855
RightHandThumb1 -24.326973 -0.000000 -32.862282
LeftUpLeg -20.252549 3.533081 0.673346
LeftLeg -0.283557 -0.000000 0.000000
LeftFoot -5.799699 -1.444118 -2.255142
LeftToeBase 3.653265 -0.000000 -0.000000
RightUpLeg -19.927663 -8.447703 4.758623
RightLeg -1.413086 -0.000000 0.000000
RightFoot -8.171948 -0.230741 11.195835
RightToeBase 16.391396 -0.000000 -0.000000
